<svg width="444" height="444" viewBox="0 0 444 444" fill="none" xmlns="http://www.w3.org/2000/svg">
<path d="M384.479 221.979C384.479 250.504 376.97 278.526 362.708 303.229C348.446 327.932 327.932 348.446 303.229 362.708C278.526 376.97 250.504 384.479 221.979 384.479C193.454 384.479 165.432 376.97 140.729 362.708L221.979 221.979H384.479Z" fill="#179B72"/>
<path d="M140.729 362.708C116.026 348.446 95.5123 327.932 81.25 303.229C66.9876 278.526 59.4791 250.504 59.4791 221.979C59.4791 193.454 66.9876 165.432 81.25 140.729C95.5124 116.026 116.026 95.5123 140.729 81.25L221.979 221.979L140.729 362.708Z" fill="#DB7231"/>
<path d="M140.729 81.25C165.432 66.9876 193.454 59.4791 221.979 59.4791C250.504 59.4791 278.526 66.9877 303.229 81.25C327.932 95.5124 348.446 116.026 362.708 140.729C376.971 165.432 384.479 193.454 384.479 221.979L221.979 221.979L140.729 81.25Z" fill="#AA1F27"/>
</svg>
