<svg width="45" height="44" viewBox="0 0 45 44" fill="none" xmlns="http://www.w3.org/2000/svg">
<path d="M19.9743 0.157074C9.60329 1.29175 1.26139 9.68834 0.134105 19.9004C-0.993178 30.5663 5.09415 40.0976 14.3379 43.7286C15.0143 43.9555 15.6906 43.5016 15.6906 42.5939V38.9629C15.6906 38.9629 14.7888 39.1899 13.6615 39.1899C10.5051 39.1899 9.15238 36.4666 8.92692 34.8781C8.70146 33.9704 8.25055 33.2896 7.57418 32.6087C6.89781 32.3818 6.67235 32.3818 6.67235 32.1549C6.67235 31.701 7.34872 31.701 7.57418 31.701C8.92692 31.701 10.0542 33.2896 10.5051 33.9704C11.6324 35.7858 12.9851 36.2397 13.6615 36.2397C14.5633 36.2397 15.2397 36.0128 15.6906 35.7858C15.9161 34.1973 16.5924 32.6087 17.9452 31.701C12.7597 30.5663 8.92692 27.6162 8.92692 22.6236C8.92692 20.1273 10.0542 17.6311 11.6324 15.8156C11.4069 15.3617 11.1815 14.227 11.1815 12.6385C11.1815 11.7307 11.1815 10.3691 11.8579 9.00753C11.8579 9.00753 15.0143 9.00753 18.1706 11.9577C19.2979 11.5038 20.8761 11.2769 22.4543 11.2769C24.0325 11.2769 25.6107 11.5038 26.9635 11.9577C29.8944 9.00753 33.2762 9.00753 33.2762 9.00753C33.7272 10.3691 33.7272 11.7307 33.7272 12.6385C33.7272 14.454 33.5017 15.3617 33.2762 15.8156C34.8544 17.6311 35.9817 19.9004 35.9817 22.6236C35.9817 27.6162 32.149 30.5663 26.9635 31.701C28.3162 32.8357 29.218 34.8781 29.218 36.9205V42.8208C29.218 43.5016 29.8944 44.1824 30.7962 43.9555C39.1381 40.5515 45 32.3818 45 22.8506C45 9.23447 33.5017 -1.43147 19.9743 0.157074Z" fill="#179B72"/>
</svg>
