<svg width="43" height="44" viewBox="0 0 43 44" fill="none" xmlns="http://www.w3.org/2000/svg">
<path d="M39.0909 0H3.90909C1.74932 0 0 1.79 0 4V40C0 42.21 1.74932 44 3.90909 44H39.0909C41.2507 44 43 42.21 43 40V4C43 1.79 41.2507 0 39.0909 0ZM13.5919 36H7.826V17.016H13.5919V36ZM10.6503 14.302C8.79155 14.302 7.2885 12.76 7.2885 10.862C7.2885 8.964 8.7935 7.424 10.6503 7.424C12.5032 7.424 14.0102 8.966 14.0102 10.862C14.0102 12.76 12.5032 14.302 10.6503 14.302ZM35.1896 36H29.4276V26.768C29.4276 24.566 29.3885 21.734 26.4313 21.734C23.4311 21.734 22.9698 24.132 22.9698 26.608V36H17.2078V17.016H22.7392V19.61H22.8174C23.5875 18.118 25.4677 16.544 28.2725 16.544C34.1107 16.544 35.1896 20.476 35.1896 25.588V36V36Z" fill="#179B72"/>
</svg>
